<?xml version="1.0" encoding="utf-8"?>
<!-- Generator: Adobe Illustrator 24.3.0, SVG Export Plug-In . SVG Version: 6.00 Build 0)  -->
<svg version="1.1" id="Слой_1" xmlns="http://www.w3.org/2000/svg" xmlns:xlink="http://www.w3.org/1999/xlink" x="0px" y="0px"
	 viewBox="0 0 34 35" style="enable-background:new 0 0 34 35;" xml:space="preserve">
<style type="text/css">
	.st0{fill:#F53838;}
</style>
<path class="st0" d="M23.8,8.6H10.2c-1.1,0-1.9,0.9-1.9,1.9v13.6c0,1.1,0.9,1.9,1.9,1.9h13.6c1.1,0,1.9-0.9,1.9-1.9V10.6
	C25.8,9.5,24.9,8.6,23.8,8.6z M20.7,11.1c0-0.1,0.1-0.3,0.2-0.4c0.1-0.1,0.2-0.2,0.4-0.2h2.1c0.1,0,0.3,0.1,0.4,0.2
	c0.1,0.1,0.2,0.2,0.2,0.4v2.1c0,0.1-0.1,0.3-0.2,0.4c-0.1,0.1-0.2,0.2-0.4,0.2h-2.1c-0.3,0-0.5-0.2-0.5-0.5V11.1z M14.5,14.9
	c0.7-0.7,1.5-1,2.5-1c0.5,0,0.9,0.1,1.3,0.3c0.4,0.2,0.8,0.4,1.1,0.8c0.3,0.3,0.6,0.7,0.8,1.1c0.2,0.4,0.3,0.9,0.3,1.3
	c0,0.5-0.1,0.9-0.3,1.3c-0.2,0.4-0.4,0.8-0.8,1.1c-0.3,0.3-0.7,0.6-1.1,0.8c-0.4,0.2-0.9,0.3-1.3,0.3c-0.9,0-1.8-0.4-2.5-1
	c-0.7-0.7-1-1.5-1-2.5C13.5,16.5,13.9,15.6,14.5,14.9z M24,23.5c0,0.2-0.1,0.5-0.3,0.6c-0.2,0.2-0.4,0.3-0.6,0.3H10.9
	c-0.5,0-0.9-0.4-0.9-0.9v-7h1.8c-0.1,0.3-0.1,0.6-0.1,0.9c0,1.4,0.6,2.7,1.5,3.7c1,1,2.3,1.5,3.7,1.5c1.4,0,2.7-0.6,3.7-1.5
	c1-1,1.5-2.3,1.5-3.7c0-0.3,0-0.6-0.1-0.9H24V23.5z"/>
</svg>
