<?xml version="1.0" encoding="utf-8"?>
<!-- Generator: Adobe Illustrator 24.3.0, SVG Export Plug-In . SVG Version: 6.00 Build 0)  -->
<svg version="1.1" id="Слой_1" xmlns="http://www.w3.org/2000/svg" xmlns:xlink="http://www.w3.org/1999/xlink" x="0px" y="0px"
	 viewBox="0 0 35 35" style="enable-background:new 0 0 35 35;" xml:space="preserve">
<style type="text/css">
	.st0{fill:#F53838;}
</style>
<path class="st0" d="M23.9,14.2c0,0.1,0,0.3,0,0.4c0,4.4-3.3,9.4-9.4,9.4c-1.8,0-3.6-0.5-5.1-1.5c0.3,0,0.5,0,0.8,0
	c1.6,0,3-0.5,4.1-1.4c-0.7,0-1.4-0.2-1.9-0.7c-0.6-0.4-1-1-1.2-1.6c0.5,0.1,1,0.1,1.5-0.1c-0.7-0.2-1.4-0.6-1.9-1.1
	c-0.5-0.6-0.7-1.3-0.7-2.1v0c0.4,0.2,1,0.4,1.5,0.4c-0.7-0.5-1.2-1.2-1.4-2c-0.2-0.8-0.1-1.7,0.4-2.4c0.8,1,1.9,1.9,3,2.5
	c1.2,0.6,2.5,0.9,3.8,1c-0.2-0.7-0.1-1.5,0.2-2.1c0.3-0.7,0.8-1.2,1.5-1.6c0.6-0.3,1.4-0.5,2.1-0.3c0.7,0.1,1.4,0.5,1.9,1
	c0.7-0.1,1.5-0.4,2.1-0.8c-0.2,0.8-0.8,1.4-1.5,1.8c0.7-0.1,1.3-0.3,1.9-0.5C25.1,13.2,24.6,13.7,23.9,14.2L23.9,14.2z"/>
</svg>
